<svg width="338" height="111" viewBox="0 0 338 111" fill="none" xmlns="http://www.w3.org/2000/svg">
<mask id="path-1-inside-1_1_94" fill="white">
<path fill-rule="evenodd" clip-rule="evenodd" d="M175.151 50.9187C170.651 41.9186 268.151 -18.0814 311.651 5.41878C355.151 28.9189 179.651 59.9188 175.151 50.9187ZM206.733 39.5689C204.257 34.77 257.905 2.77791 281.841 15.3082C305.776 27.8385 209.21 44.3677 206.733 39.5689Z"/>
</mask>
<path fill-rule="evenodd" clip-rule="evenodd" d="M175.151 50.9187C170.651 41.9186 268.151 -18.0814 311.651 5.41878C355.151 28.9189 179.651 59.9188 175.151 50.9187ZM206.733 39.5689C204.257 34.77 257.905 2.77791 281.841 15.3082C305.776 27.8385 209.21 44.3677 206.733 39.5689Z" fill="#F4E879"/>
<path d="M175.151 50.9187L173.362 51.8132H173.362L175.151 50.9187ZM311.651 5.41878L312.601 3.65914L311.651 5.41878ZM206.733 39.5689L208.511 38.6518L206.733 39.5689ZM281.841 15.3082L282.768 13.5363V13.5363L281.841 15.3082ZM176.939 50.0243C177.1 50.3464 176.846 50.3519 177.242 49.5814C177.596 48.8949 178.289 47.9585 179.393 46.7892C181.585 44.4698 185.075 41.5665 189.621 38.3385C198.691 31.8981 211.702 24.3512 226.223 17.8044C240.748 11.2556 256.699 5.74654 271.658 3.32264C286.661 0.891542 300.39 1.60847 310.7 7.17842L312.601 3.65914C301.162 -2.52098 286.39 -3.11661 271.018 -0.625866C255.602 1.87207 239.303 7.51929 224.579 14.1579C209.849 20.7987 196.61 28.4705 187.305 35.077C182.664 38.3725 178.935 41.4497 176.486 44.0423C175.27 45.3292 174.287 46.5818 173.686 47.7514C173.127 48.8371 172.638 50.3661 173.362 51.8132L176.939 50.0243ZM310.7 7.17842C313.285 8.57485 314.861 9.89974 315.719 11.0782C316.531 12.1943 316.694 13.1599 316.502 14.0803C316.29 15.0894 315.594 16.3011 314.186 17.6936C312.791 19.0737 310.818 20.5111 308.299 21.9804C298.164 27.8926 280.413 33.6355 260.924 38.4139C241.499 43.1767 220.577 46.9279 204.251 48.9258C196.081 49.9257 189.113 50.4801 184.079 50.5116C181.551 50.5274 179.593 50.4102 178.242 50.178C177.562 50.0611 177.123 49.9292 176.87 49.8176C176.573 49.6862 176.773 49.6915 176.939 50.0243L173.362 51.8132C173.809 52.7085 174.625 53.1982 175.253 53.476C175.926 53.7735 176.722 53.9755 177.564 54.1202C179.257 54.4112 181.488 54.5279 184.105 54.5115C189.36 54.4786 196.502 53.9041 204.737 52.8962C221.224 50.8786 242.302 47.0985 261.877 42.2988C281.389 37.5147 299.637 31.6639 310.315 25.4355C312.999 23.8696 315.28 22.2377 316.999 20.5374C318.705 18.8496 319.983 16.97 320.417 14.8999C320.869 12.7412 320.347 10.6399 318.953 8.72455C317.604 6.87145 315.454 5.20023 312.601 3.65914L310.7 7.17842ZM208.511 38.6518C208.824 39.2588 208.493 39.6439 208.672 39.3058C208.806 39.0542 209.118 38.6284 209.7 38.0308C210.846 36.8555 212.712 35.346 215.192 33.6392C220.131 30.2413 227.239 26.2438 235.184 22.7728C243.132 19.3 251.835 16.391 259.969 15.1137C268.149 13.8293 275.483 14.2375 280.913 17.0801L282.768 13.5363C276.23 10.1138 267.883 9.82215 259.349 11.1621C250.77 12.5091 241.728 15.5486 233.582 19.1074C225.432 22.6679 218.097 26.7852 212.925 30.3439C210.35 32.1154 208.244 33.7947 206.836 35.2385C206.142 35.9505 205.531 36.6918 205.14 37.43C204.794 38.0816 204.333 39.279 204.956 40.4859L208.511 38.6518ZM280.913 17.0801C282.279 17.7952 283.014 18.4256 283.369 18.8993C283.676 19.3078 283.671 19.543 283.632 19.7228C283.572 20.0003 283.334 20.4886 282.626 21.1675C281.932 21.8318 280.917 22.5558 279.567 23.3189C274.108 26.4044 264.448 29.4442 253.729 31.9911C243.072 34.5231 231.593 36.5173 222.644 37.5786C218.162 38.1102 214.364 38.4017 211.641 38.4182C210.269 38.4265 209.248 38.3639 208.577 38.2521C208.236 38.1953 208.071 38.1393 208.022 38.1187C207.923 38.0761 208.271 38.1865 208.511 38.6518L204.956 40.4859C205.351 41.2511 206.037 41.6198 206.447 41.7954C206.908 41.9929 207.423 42.115 207.919 42.1977C208.923 42.3649 210.207 42.427 211.666 42.4181C214.604 42.4003 218.57 42.0898 223.115 41.5508C232.22 40.471 243.851 38.4496 254.654 35.8828C265.393 33.331 275.542 30.189 281.535 26.8011C283.048 25.9459 284.373 25.0332 285.393 24.0552C286.399 23.0916 287.247 21.9316 287.542 20.5673C287.858 19.1054 287.475 17.7052 286.568 16.4974C285.71 15.3546 284.394 14.3875 282.768 13.5363L280.913 17.0801Z" fill="black" fill-opacity="0.09" mask="url(#path-1-inside-1_1_94)"/>
<mask id="path-3-inside-2_1_94" fill="white">
<path fill-rule="evenodd" clip-rule="evenodd" d="M168.862 51.8137C172.999 43.5392 83.3592 -11.6237 43.3661 9.98192C3.37312 31.5875 164.724 60.0882 168.862 51.8137ZM139.825 41.3788C142.101 36.9668 92.7785 7.55395 70.7729 19.0741C48.7674 30.5942 137.548 45.7908 139.825 41.3788Z"/>
</mask>
<path fill-rule="evenodd" clip-rule="evenodd" d="M168.862 51.8137C172.999 43.5392 83.3592 -11.6237 43.3661 9.98192C3.37312 31.5875 164.724 60.0882 168.862 51.8137ZM139.825 41.3788C142.101 36.9668 92.7785 7.55395 70.7729 19.0741C48.7674 30.5942 137.548 45.7908 139.825 41.3788Z" fill="#F4E879"/>
<path d="M168.862 51.8137L170.65 52.7081H170.65L168.862 51.8137ZM43.3661 9.98192L44.3168 11.7416L43.3661 9.98192ZM139.825 41.3788L141.602 42.2959V42.2959L139.825 41.3788ZM70.7729 19.0741L71.7005 20.8459L70.7729 19.0741ZM167.073 50.9193C166.889 51.2866 167.153 51.3536 166.795 50.658C166.48 50.0462 165.855 49.198 164.843 48.1278C162.839 46.0063 159.64 43.3442 155.464 40.3791C147.135 34.4647 135.182 27.5312 121.841 21.516C108.494 15.4987 93.8434 10.4394 80.1088 8.21392C66.3297 5.98123 53.7503 6.64525 44.3168 11.7416L42.4155 8.22228C52.9785 2.5158 66.6014 1.97308 80.7486 4.26542C94.9401 6.56496 109.939 11.7625 123.485 17.8695C137.035 23.9787 149.216 31.037 157.78 37.1176C162.051 40.1501 165.489 42.9863 167.751 45.3809C168.873 46.5687 169.788 47.7331 170.352 48.8279C170.872 49.8388 171.351 51.3064 170.65 52.7081L167.073 50.9193ZM44.3168 11.7416C41.9511 13.0196 40.5252 14.2237 39.7566 15.2799C39.0332 16.2739 38.8973 17.1158 39.064 17.9122C39.2493 18.7971 39.8662 19.8842 41.1485 21.1525C42.4183 22.4084 44.2197 23.7221 46.5287 25.069C55.825 30.4919 72.1251 35.7675 90.0413 40.1604C107.894 44.5377 127.123 47.9853 142.126 49.8214C149.636 50.7403 156.035 51.2492 160.653 51.2781C162.974 51.2926 164.764 51.1849 165.992 50.9738C166.611 50.8674 167 50.7489 167.215 50.6538C167.475 50.5389 167.25 50.5637 167.073 50.9193L170.65 52.7081C170.214 53.5808 169.424 54.0509 168.833 54.3122C168.197 54.5933 167.45 54.7818 166.67 54.9159C165.099 55.1859 163.038 55.2931 160.628 55.278C155.787 55.2477 149.215 54.7187 141.641 53.7917C126.477 51.936 107.092 48.4595 89.0887 44.0453C71.1491 39.6466 54.3515 34.2632 44.5132 28.5241C42.0386 27.0806 39.929 25.5724 38.3356 23.9963C36.7547 22.4327 35.5562 20.6777 35.1489 18.7317C34.723 16.6972 35.2174 14.7194 36.5223 12.9263C37.7819 11.1954 39.7821 9.64495 42.4155 8.22228L44.3168 11.7416ZM138.048 40.4618C137.722 41.093 138.058 41.5108 137.9 41.2126C137.787 41.0009 137.513 40.6222 136.982 40.0773C135.939 39.0076 134.234 37.6266 131.957 36.06C127.426 32.9425 120.9 29.2722 113.604 26.0846C106.304 22.8952 98.3167 20.226 90.8558 19.0545C83.3497 17.8759 76.648 18.2559 71.7005 20.8459L69.8453 17.3022C75.9006 14.1322 83.6164 13.8688 91.4762 15.1029C99.3813 16.3442 107.709 19.1439 115.205 22.4192C122.706 25.6963 129.46 29.4864 134.224 32.7647C136.595 34.396 138.541 35.9468 139.846 37.285C140.489 37.9442 141.062 38.6385 141.433 39.3368C141.758 39.9485 142.212 41.1132 141.602 42.2959L138.048 40.4618ZM71.7005 20.8459C70.4552 21.4979 69.803 22.064 69.4963 22.4725C69.2384 22.8158 69.259 22.9851 69.2835 23.0987C69.3292 23.31 69.5236 23.7319 70.1627 24.3445C70.7868 24.9427 71.7082 25.6007 72.9428 26.2986C77.9395 29.1231 86.8011 31.9137 96.6555 34.2551C106.447 36.5816 116.995 38.4139 125.216 39.3889C129.334 39.8773 132.819 40.1445 135.314 40.1597C136.572 40.1673 137.5 40.1097 138.104 40.0091C138.411 39.958 138.549 39.9092 138.576 39.8973C138.655 39.8636 138.294 39.9844 138.048 40.4618L141.602 42.2959C141.214 43.049 140.541 43.4072 140.152 43.5741C139.711 43.7628 139.224 43.8776 138.761 43.9548C137.825 44.1107 136.633 44.1677 135.289 44.1596C132.579 44.1431 128.927 43.857 124.745 43.3611C116.368 42.3676 105.669 40.508 95.7308 38.1468C85.856 35.8005 76.5061 32.9077 70.9744 29.7807C69.5768 28.9907 68.3462 28.1441 67.3949 27.2323C66.4586 26.3349 65.6541 25.2414 65.3737 23.9432C65.0722 22.5474 65.4396 21.2132 66.2977 20.0705C67.1069 18.9929 68.34 18.0903 69.8453 17.3022L71.7005 20.8459Z" fill="black" fill-opacity="0.09" mask="url(#path-3-inside-2_1_94)"/>
<g filter="url(#filter0_d_1_94)">
<rect x="4" y="49" width="330" height="54" rx="9" fill="#E83B3B"/>
<rect x="5.5" y="50.5" width="327" height="51" rx="7.5" stroke="#B71515" stroke-width="3"/>
</g>
<g filter="url(#filter1_ii_1_94)">
<rect x="140.4" y="49" width="58.3" height="54" fill="#F4E879"/>
</g>
<rect x="141.9" y="50.5" width="55.3" height="51" stroke="black" stroke-opacity="0.09" stroke-width="3"/>
<defs>
<filter id="filter0_d_1_94" x="0" y="49" width="338" height="62" filterUnits="userSpaceOnUse" color-interpolation-filters="sRGB">
<feFlood flood-opacity="0" result="BackgroundImageFix"/>
<feColorMatrix in="SourceAlpha" type="matrix" values="0 0 0 0 0 0 0 0 0 0 0 0 0 0 0 0 0 0 127 0" result="hardAlpha"/>
<feOffset dy="4"/>
<feGaussianBlur stdDeviation="2"/>
<feComposite in2="hardAlpha" operator="out"/>
<feColorMatrix type="matrix" values="0 0 0 0 0 0 0 0 0 0 0 0 0 0 0 0 0 0 0.25 0"/>
<feBlend mode="normal" in2="BackgroundImageFix" result="effect1_dropShadow_1_94"/>
<feBlend mode="normal" in="SourceGraphic" in2="effect1_dropShadow_1_94" result="shape"/>
</filter>
<filter id="filter1_ii_1_94" x="140.4" y="45" width="58.3" height="62" filterUnits="userSpaceOnUse" color-interpolation-filters="sRGB">
<feFlood flood-opacity="0" result="BackgroundImageFix"/>
<feBlend mode="normal" in="SourceGraphic" in2="BackgroundImageFix" result="shape"/>
<feColorMatrix in="SourceAlpha" type="matrix" values="0 0 0 0 0 0 0 0 0 0 0 0 0 0 0 0 0 0 127 0" result="hardAlpha"/>
<feOffset dy="-5"/>
<feGaussianBlur stdDeviation="2"/>
<feComposite in2="hardAlpha" operator="arithmetic" k2="-1" k3="1"/>
<feColorMatrix type="matrix" values="0 0 0 0 0 0 0 0 0 0 0 0 0 0 0 0 0 0 0.3 0"/>
<feBlend mode="normal" in2="shape" result="effect1_innerShadow_1_94"/>
<feColorMatrix in="SourceAlpha" type="matrix" values="0 0 0 0 0 0 0 0 0 0 0 0 0 0 0 0 0 0 127 0" result="hardAlpha"/>
<feOffset dy="4"/>
<feGaussianBlur stdDeviation="2"/>
<feComposite in2="hardAlpha" operator="arithmetic" k2="-1" k3="1"/>
<feColorMatrix type="matrix" values="0 0 0 0 0 0 0 0 0 0 0 0 0 0 0 0 0 0 0.3 0"/>
<feBlend mode="normal" in2="effect1_innerShadow_1_94" result="effect2_innerShadow_1_94"/>
</filter>
</defs>
</svg>
